<svg xmlns="http://www.w3.org/2000/svg" viewBox="0 0 48 48" id="money-bag">
  <path fill="#1c1c1b" d="M22.309,24.731h3.382a2.339,2.339,0,0,1,2.337,2.337,1,1,0,1,0,2,0,4.342,4.342,0,0,0-4.337-4.337H25V19.8a1,1,0,0,0-2,0v2.932h-.691a4.337,4.337,0,0,0,0,8.674h3.382a2.337,2.337,0,1,1,0,4.674H22.309a2.339,2.339,0,0,1-2.337-2.337,1,1,0,0,0-2,0,4.341,4.341,0,0,0,4.337,4.337H23v2.932a1,1,0,0,0,2,0V38.079h.691a4.337,4.337,0,0,0,0-8.674H22.309a2.337,2.337,0,0,1,0-4.674Z"></path>
  <path fill="#1c1c1b" d="M30.281,11.47a1.01,1.01,0,0,1-.483-.611.815.815,0,0,1,.1-.63C34.429,2.687,33.681,1.364,33.362.8A1.6,1.6,0,0,0,31.918,0a17.189,17.189,0,0,0-4.093.615,16.355,16.355,0,0,1-3.921.593A12,12,0,0,1,20.544.67,15.921,15.921,0,0,0,16.082,0,1.8,1.8,0,0,0,14.4.922c-.338.622-1.131,2.077,3.568,9.357a.809.809,0,0,1,.117.635,1.017,1.017,0,0,1-.485.63c-6.967,4.2-11.647,14.4-11.647,21.289C5.948,41.621,13.54,48,24,48s18.052-6.379,18.052-15.167C42.052,25.873,37.322,15.628,30.281,11.47ZM24,46C14.549,46,7.948,40.586,7.948,32.833c0-5.973,3.806-14.634,9.583-18.842h9a1,1,0,0,0,0-2H19.8a2.783,2.783,0,0,0-.154-2.8C16.8,4.784,16.113,2.655,16.138,2a13.932,13.932,0,0,1,3.894.6,14.011,14.011,0,0,0,3.872.605,18.183,18.183,0,0,0,4.382-.647A16.755,16.755,0,0,1,31.6,2.006c-.092.767-.836,2.833-3.18,6.79H21.956a1,1,0,0,0,0,2h5.82a2.864,2.864,0,0,0,.083.555,2.993,2.993,0,0,0,1.4,1.841c6.358,3.754,10.788,13.365,10.788,19.641C40.052,40.586,33.451,46,24,46Z"></path>
</svg>
