<svg xmlns="http://www.w3.org/2000/svg" enable-background="new 0 0 24 24" viewBox="0 0 24 24" id="Share">
  <path d="M21,12c-0.6,0-1,0.4-1,1v6c0,0.6-0.4,1-1,1H5c-0.6,0-1-0.4-1-1v-6c0-0.6-0.4-1-1-1s-1,0.4-1,1v6c0,1.7,1.3,3,3,3h14
	c1.7,0,3-1.3,3-3v-6C22,12.4,21.6,12,21,12z M8.7,7.7L11,5.4V15c0,0.6,0.4,1,1,1s1-0.4,1-1V5.4l2.3,2.3c0.4,0.4,1,0.4,1.4,0
	c0,0,0,0,0,0c0.4-0.4,0.4-1,0-1.4c0,0,0,0,0,0l-4-4c-0.1-0.1-0.2-0.2-0.3-0.2c-0.2-0.1-0.5-0.1-0.8,0c-0.1,0-0.2,0.1-0.3,0.2l-4,4
	c-0.4,0.4-0.4,1,0,1.4C7.7,8.1,8.3,8.1,8.7,7.7z" fill="#8a8888" class="color000000 svgShape"></path>
</svg>
