<svg xmlns="http://www.w3.org/2000/svg" enable-background="new 0 0 512 512" viewBox="0 0 512 512" id="shipping-truck">
  <path d="M505.3,230c-14.1-24.8-30.2-48.4-48.1-70.7c-16.9-20.9-42.2-33.3-69.1-33.7c-14.7-0.2-29.9-0.4-41.3-0.4
	c-0.5-1.7-1.2-3.4-2-5c-10.7-23.7-33.3-39.8-59.2-42.1c-20.9-1.8-69.3-3.2-108.5-3.2s-87.6,1.3-108.5,3.2
	c-34.7,3.1-62.3,30.6-65.3,65.3C1.3,164.3,0,192.9,0,232.1s1.3,67.9,3.2,88.7c2.4,27.2,20,50.7,45.4,60.6
	c8.3,38.1,45.9,62.3,84,54.1c24.2-5.2,43.9-22.8,51.9-46.2h0.2l141.5-1.8c11.6,37.2,51.2,58,88.5,46.4c24.3-7.6,42.6-27.6,48-52.5
	c1.7-0.4,2.5-0.7,2.5-0.7c24.4-6.3,42.1-27.3,44.3-52.3c1.3-14.9,2.3-43.9,2.6-72.4C512.1,246.9,509.8,237.9,505.3,230z
	 M140.6,389.6c-12.8,12.7-33.4,12.6-46.1-0.2s-12.6-33.4,0.2-46.1c12.8-12.7,33.4-12.6,46.1,0.2c6.1,6.1,9.5,14.4,9.5,23
	C150.3,375.2,146.8,383.5,140.6,389.6z M274.6,350.2l-88,1.1c-8.4-38.1-46.1-62.2-84.2-53.8c-22.7,5-41.4,20.8-50.2,42.3
	c-6.4-5.7-10.4-13.7-11.2-22.3c-2-22.8-3-51.5-3-85.4s1-62.6,3-85.4c1.4-16.4,14.4-29.4,30.8-30.8c18.9-1.7,66.1-3,105.2-3
	s86.3,1.4,105.2,3c13.1,1.2,24.4,9.8,28.9,22.2l2.7,7.4c1.9,10.1,4.9,36.2,4.9,99.7C318.7,334.9,306.6,345.7,274.6,350.2
	L274.6,350.2z M419.5,386.2c-10.9,14.3-31.3,17.1-45.6,6.2c-14.3-10.9-17.1-31.3-6.2-45.6c10.9-14.3,31.3-17.1,45.6-6.2
	c8.1,6.2,12.8,15.7,12.8,25.9C426.2,373.6,423.9,380.6,419.5,386.2L419.5,386.2z M471.6,325c-0.6,7.4-5,13.9-11.6,17.2
	c-13.4-36.7-53.9-55.5-90.5-42.2c-5.7,2.1-11.1,4.9-16.1,8.3c2.6-18.1,3.3-39.1,3.3-63.2c0-34.3-0.8-61.8-2.5-82.1
	c10,0.1,21.5,0.2,33.3,0.4c15.7,0.3,30.4,7.5,40.2,19.7c16.6,20.6,31.5,42.6,44.6,65.6c1.2,2.1,1.8,4.5,1.8,6.9
	C473.8,283.5,472.8,311.4,471.6,325L471.6,325z"></path>
</svg>
